<svg width="16" height="20" viewBox="0 0 16 20" fill="none" xmlns="http://www.w3.org/2000/svg">
<path d="M10.8876 0.115509C10.7959 0.018921 10.6702 -0.0390625 10.5399 -0.0390625H2.73789C1.29822 -0.0390625 0.109863 1.14456 0.109863 2.58408V17.3377C0.109863 18.7773 1.29822 19.961 2.73789 19.961H13.3272C14.7669 19.961 15.9552 18.7773 15.9552 17.3377V5.62272C15.9552 5.49714 15.8972 5.37644 15.8152 5.28459L10.8876 0.115509ZM11.0277 1.66626L14.3273 5.13001H12.1823C11.5447 5.13001 11.0277 4.61793 11.0277 3.98026V1.66626ZM13.3272 18.9948H2.73789C1.83457 18.9948 1.07605 18.246 1.07605 17.3377V2.58408C1.07605 1.68076 1.82968 0.927126 2.73789 0.927126H10.0615V3.98026C10.0615 5.15412 11.0085 6.0962 12.1823 6.0962H14.989V17.3377C14.989 18.246 14.2354 18.9948 13.3272 18.9948Z" fill="#696969"/>
<path d="M12.0083 15.6615H4.05658C3.79092 15.6615 3.57349 15.8788 3.57349 16.1446C3.57349 16.4103 3.79092 16.6277 4.05658 16.6277H12.0131C12.2788 16.6277 12.4962 16.4103 12.4962 16.1446C12.4962 15.8788 12.2788 15.6615 12.0083 15.6615Z" fill="#696969"/>
<path d="M7.67956 13.9272C7.77141 14.0238 7.89699 14.0817 8.03219 14.0817C8.16753 14.0817 8.29311 14.0238 8.38482 13.9272L11.2158 10.8885C11.3994 10.6952 11.3849 10.3861 11.1917 10.2074C10.9983 10.0238 10.6892 10.0382 10.5105 10.2315L8.51528 12.3715V7.09625C8.51528 6.83044 8.29784 6.61316 8.03219 6.61316C7.76653 6.61316 7.54909 6.83044 7.54909 7.09625V12.3715L5.55873 10.2315C5.37517 10.0383 5.07076 10.0238 4.87758 10.2074C4.6844 10.3909 4.66991 10.6954 4.85347 10.8885L7.67956 13.9272Z" fill="#696969"/>
</svg>
